<?xml version="1.0" encoding="UTF-8" standalone="no"?>
<!-- Created with Inkscape (http://www.inkscape.org/) -->

<svg
   version="1.1"
   id="svg2"
   width="1066.6667"
   height="800"
   viewBox="0 0 1066.6667 800"
   sodipodi:docname="OBSERVATORIO PARA LA P.ai"
   inkscape:version="1.2.2 (b0a8486541, 2022-12-01)"
   xmlns:inkscape="http://www.inkscape.org/namespaces/inkscape"
   xmlns:sodipodi="http://sodipodi.sourceforge.net/DTD/sodipodi-0.dtd"
   xmlns="http://www.w3.org/2000/svg"
   xmlns:svg="http://www.w3.org/2000/svg">
  <defs
     id="defs6">
    <clipPath
       clipPathUnits="userSpaceOnUse"
       id="clipPath18">
      <path
         d="M 0,600 H 800 V 0 H 0 Z"
         id="path16" />
    </clipPath>
  </defs>
  <sodipodi:namedview
     id="namedview4"
     pagecolor="#505050"
     bordercolor="#eeeeee"
     borderopacity="1"
     inkscape:showpageshadow="0"
     inkscape:pageopacity="0"
     inkscape:pagecheckerboard="0"
     inkscape:deskcolor="#505050"
     showgrid="false"
     inkscape:zoom="1.0725"
     inkscape:cx="510.95571"
     inkscape:cy="400.4662"
     inkscape:window-width="1920"
     inkscape:window-height="1048"
     inkscape:window-x="0"
     inkscape:window-y="0"
     inkscape:window-maximized="1"
     inkscape:current-layer="g10">
    <inkscape:page
       x="0"
       y="0"
       id="page8"
       width="1066.6667"
       height="800" />
  </sodipodi:namedview>
  <g
     id="g10"
     inkscape:groupmode="layer"
     inkscape:label="Page 1"
     transform="matrix(1.3333333,0,0,-1.3333333,0,800)">
    <g
       id="g12">
      <g
         id="g14"
         clip-path="url(#clipPath18)">
        <g
           id="g20"
           transform="translate(234.1283,339.931)">
          <path
             d="m 0,0 c -22.917,-3.33 -41.32,-56.863 -41.241,-76.805 0.082,-20.629 17.721,-39.294 38.424,-40.076 26.573,-1.005 46.232,55.949 46.195,77.085 C 43.339,-17.135 23.076,3.353 0,0 m -13.763,43.865 c 62.632,5.74 128.619,-34.121 120.849,-103.449 -9.797,-87.412 -95.389,-128.532 -170.594,-81.698 -79.709,49.639 -34.369,177.439 49.745,185.147"
             style="fill:#31b4a9;fill-opacity:1;fill-rule:nonzero;stroke:none"
             id="path22" />
        </g>
        <g
           id="g24"
           transform="translate(244.3839,247.4999)">
          <path
             d="m 0,0 c -9.932,-8.622 -25.4,-2.526 -32.46,7.02 -11.209,15.158 2.421,54.128 16.949,63.978 10.7,7.253 28.265,-1.669 32.601,-12.783 C 22.932,43.237 11.914,10.342 0,0"
             style="fill:#f8b23a;fill-opacity:1;fill-rule:nonzero;stroke:none"
             id="path26" />
        </g>
        <g
           id="g28"
           transform="translate(209.587,403.2255)">
          <path
             d="m 0,0 c -0.854,0.989 -1.641,4.024 -1.902,5.428 -3.93,21.176 -3.755,44.749 -7.77,66.127 0.336,9.438 19.226,11.377 21.31,2.47 L 19.62,5.357 C 19.637,-3.013 4.108,-4.756 0,0"
             style="fill:#31b4a9;fill-opacity:1;fill-rule:nonzero;stroke:none"
             id="path30" />
        </g>
        <g
           id="g32"
           transform="translate(138.4305,459.6064)">
          <path
             d="M 0,0 C 4.291,0.854 6.702,-0.981 9.22,-4.177 L 41.981,-61.83 c 4.283,-9.112 -11.507,-18.522 -17.64,-11.594 L -9.447,-14.211 C -13.155,-8.061 -5.472,-1.089 0,0"
             style="fill:#31b4a9;fill-opacity:1;fill-rule:nonzero;stroke:none"
             id="path34" />
        </g>
        <g
           id="g36"
           transform="translate(78.9505,411.4109)">
          <path
             d="m 0,0 c 2.579,0.25 4.498,-1.306 6.538,-2.555 17.632,-10.792 34.589,-29.313 52.325,-40.708 6.452,-7.171 -4.472,-21.66 -13.276,-16.696 L -8.002,-17.934 C -14.267,-12.692 -6.064,-0.588 0,0"
             style="fill:#31b4a9;fill-opacity:1;fill-rule:nonzero;stroke:none"
             id="path38" />
        </g>
      </g>
    </g>
    <text
       xml:space="preserve"
       transform="matrix(1,0,0,-1,354.6133,315.6772)"
       style="font-variant:normal;font-weight:bold;font-stretch:normal;font-size:70.954px;font-family:'Ancizar Sans';-inkscape-font-specification:AncizarSans-Bold;writing-mode:lr-tb;fill:#404a50;fill-opacity:1;fill-rule:nonzero;stroke:none"
       id="text42"><tspan
         x="0 47.893951 85.073845 113.95213 146.3781 170.21864 203.42513 235.78014 260.96881 297.36823 321.20877 338.09583 374.49521"
         y="0"
         sodipodi:role="line"
         id="tspan40">Observatorio </tspan></text>
    <text
       xml:space="preserve"
       transform="matrix(1,0,0,-1,358.582,271.6592)"
       style="font-variant:normal;font-weight:normal;font-stretch:normal;font-size:47.5323px;font-family:'Ancizar Sans';-inkscape-font-specification:AncizarSans-Regular;writing-mode:lr-tb;fill:#404a50;fill-opacity:1;fill-rule:nonzero;stroke:none"
       id="text46"><tspan
         x="0 24.146408 45.108154 60.698746 81.660492 91.879936 104.476 125.43774 135.65718 158.80542 180.14742 195.73801 231.9101 252.87184 276.73306 298.07504 321.93628 341.51956 352.452"
         y="0"
         sodipodi:role="line"
         id="tspan44">para la Permanencia</tspan></text>
    <text
       xml:space="preserve"
       transform="matrix(1,0,0,-1,361.95679,226.31339)"
       style="font-variant:normal;font-weight:normal;font-stretch:normal;font-size:47.5323px;font-family:'Ancizar Sans';-inkscape-font-specification:AncizarSans-Regular;writing-mode:lr-tb;fill:#404a50;fill-opacity:1;fill-rule:nonzero;stroke:none"
       id="text50"><tspan
         x="0 21.151873 31.371319 43.967377 64.929123 75.148567 103.28769 118.87828 139.84003 163.98643 187.84766 208.80939 228.3927 239.32513 263.04376"
         y="0"
         sodipodi:role="line"
         id="tspan48">y la Graduación</tspan></text>
  </g>
</svg>
